<svg>
    <symbol width="68" height="68" viewBox="0 0 68 68" id="battery" xmlns="http://www.w3.org/2000/svg">
        <path fill-rule="evenodd" clip-rule="evenodd" d="M62.4998 0.99808C97.0177 0.99808 125 28.98 125 63.498C125 98.015 97.0177 125.997 62.4998 125.997C27.9821 125.997 -0.000128031 98.015 -0.000128031 63.498C-0.000128031 28.98 27.9821 0.99808 62.4998 0.99808Z"/>
    </symbol>
    <symbol width="68" height="68" viewBox="0 0 68 68" id="sound" xmlns="http://www.w3.org/2000/svg">
        <g clip-path="url(#clip0_42406_420)">
        <path d="M36.404 11.4131C35.428 10.8611 34.273 10.8791 33.314 11.4571C33.268 11.4841 33.224 11.5161 33.184 11.5501L19.634 23.0131H9C8.447 23.0131 8 23.4601 8 24.0131V43.0131C8 43.2791 8.105 43.5331 8.293 43.7201C8.481 43.9071 8.734 44.0131 9 44.0131L19.61 44.0081L33.153 56.4481C33.203 56.4941 33.257 56.5341 33.314 56.5681C33.806 56.8651 34.351 57.0141 34.896 57.0141C35.413 57.0131 35.929 56.8801 36.404 56.6121C37.403 56.0481 38 55.0181 38 53.8571V14.1691C38 13.0081 37.403 11.9781 36.404 11.4131ZM36 53.8571C36 54.2881 35.783 54.6671 35.421 54.8721C35.266 54.9591 34.873 55.1271 34.421 54.8981L21 42.5691V38.0131C21 37.4601 20.553 37.0131 20 37.0131C19.447 37.0131 19 37.4601 19 38.0131V42.0091L10 42.0131V25.0131H19V29.0131C19 29.5661 19.447 30.0131 20 30.0131C20.553 30.0131 21 29.5661 21 29.0131V24.4771L34.405 13.1371C34.866 12.8951 35.265 13.0671 35.421 13.1551C35.783 13.3601 36 13.7391 36 14.1691V53.8571Z" />
        <path d="M46.797 15.066C46.274 14.889 45.706 15.169 45.528 15.692C45.351 16.214 45.631 16.783 46.154 16.961C53.255 19.372 58.026 26.024 58.026 33.514C58.026 40.997 53.264 47.65 46.177 50.068C45.655 50.246 45.375 50.814 45.554 51.338C45.696 51.753 46.084 52.015 46.5 52.015C46.607 52.015 46.716 51.998 46.823 51.961C54.719 49.268 60.025 41.855 60.025 33.515C60.026 25.166 54.71 17.753 46.797 15.066Z" />
        <path d="M51.026 33.5131C51.026 27.5411 47.017 22.2111 41.277 20.5511C40.744 20.4001 40.193 20.7031 40.039 21.2351C39.886 21.7651 40.191 22.3201 40.723 22.4731C45.612 23.8861 49.027 28.4261 49.027 33.5131C49.027 38.6001 45.612 43.1401 40.723 44.5531C40.192 44.7061 39.886 45.2611 40.039 45.7911C40.166 46.2291 40.565 46.5141 41 46.5141C41.092 46.5141 41.185 46.5011 41.277 46.4751C47.018 44.8151 51.026 39.4851 51.026 33.5131Z" />
        </g>
        <defs>
        <clipPath id="clip0_42406_420">
        <rect width="52.026" height="52.026"  transform="translate(8 8)"/>
        </clipPath>
        </defs>
    </symbol>
    <symbol width="68" height="68" viewBox="0 0 68 68" id="time" xmlns="http://www.w3.org/2000/svg">
        <path d="M35.634 41.9891C36.675 41.9081 37.624 41.3771 38.24 40.5301L47.603 27.5861C47.89 27.1891 47.847 26.6411 47.499 26.2931C47.151 25.9461 46.603 25.9031 46.206 26.1891L33.26 35.5551C32.416 36.1691 31.885 37.1181 31.804 38.1591C31.723 39.2001 32.1 40.2191 32.837 40.9561C33.508 41.6281 34.413 42.0001 35.354 42.0001C35.447 42.0001 35.54 41.9961 35.634 41.9891ZM33.798 38.3151C33.833 37.8581 34.067 37.4411 34.435 37.1731L42.332 31.4601L36.621 39.3551C36.351 39.7261 35.934 39.9591 35.477 39.9951C35.022 40.0251 34.575 39.8671 34.25 39.5421C33.928 39.2191 33.762 38.7711 33.798 38.3151Z" />
        <path d="M58.034 23.564C58.024 23.543 58.024 23.521 58.013 23.5C58.001 23.48 57.982 23.469 57.969 23.45C56.958 21.716 55.762 20.103 54.404 18.641L56.552 16.494L57.966 17.908L62.208 13.665L57.966 9.423L53.723 13.665L55.138 15.08L52.99 17.227C51.528 15.869 49.916 14.672 48.181 13.661C48.162 13.648 48.151 13.629 48.131 13.617C48.11 13.605 48.088 13.606 48.067 13.595C44.974 11.813 41.499 10.626 37.794 10.191V9H39.294C40.673 9 41.794 7.879 41.794 6.5C41.794 5.121 40.672 4 39.293 4H30.293C28.914 4 27.793 5.121 27.793 6.5C27.793 7.879 28.914 9 30.293 9H31.793V10.156C30.713 10.271 29.635 10.447 28.569 10.691C28.031 10.814 27.694 11.351 27.818 11.889C27.941 12.427 28.478 12.765 29.016 12.64C29.936 12.429 30.865 12.27 31.796 12.163L32.869 12.08C33.197 12.055 33.499 12.037 33.793 12.023V14C33.793 14.553 34.24 15 34.793 15C35.346 15 35.793 14.553 35.793 14V12.03C39.554 12.203 43.098 13.213 46.249 14.875L45.263 16.582C44.987 17.061 45.151 17.672 45.629 17.948C45.786 18.039 45.958 18.082 46.128 18.082C46.474 18.082 46.81 17.903 46.995 17.582L47.978 15.879C51.107 17.864 53.765 20.522 55.75 23.651L54.047 24.634C53.57 24.91 53.406 25.521 53.683 26C53.869 26.321 54.204 26.5 54.55 26.5C54.72 26.5 54.892 26.457 55.049 26.366L56.756 25.38C58.441 28.576 59.454 32.178 59.605 35.999H57.63C57.077 35.999 56.63 36.446 56.63 36.999C56.63 37.552 57.077 37.999 57.63 37.999H59.605C59.454 41.82 58.441 45.422 56.756 48.618L55.049 47.632C54.571 47.356 53.959 47.518 53.683 47.998C53.407 48.477 53.571 49.088 54.049 49.364L55.752 50.347C53.767 53.476 51.109 56.134 47.98 58.119L46.997 56.416C46.72 55.936 46.107 55.773 45.631 56.05C45.152 56.326 44.988 56.938 45.265 57.416L46.251 59.123C43.1 60.785 39.556 61.795 35.795 61.968V60C35.795 59.447 35.348 59 34.795 59C34.242 59 33.795 59.447 33.795 60V61.976C32.198 61.921 30.596 61.721 29.019 61.359C28.481 61.23 27.944 61.572 27.821 62.11C27.697 62.648 28.034 63.185 28.572 63.308C30.568 63.768 32.607 64 34.63 64C34.679 64 34.726 63.997 34.775 63.996C34.782 63.996 34.787 64 34.793 64C34.801 64 34.808 63.995 34.816 63.995C39.623 63.962 44.133 62.664 48.035 60.422C48.066 60.408 48.099 60.401 48.129 60.383C48.149 60.371 48.16 60.352 48.179 60.339C52.218 57.985 55.593 54.614 57.952 50.578C57.971 50.551 57.995 50.53 58.012 50.5C58.024 50.479 58.023 50.457 58.033 50.436C60.317 46.476 61.63 41.89 61.63 37C61.63 32.11 60.317 27.524 58.034 23.564ZM57.965 12.251L59.379 13.665L57.965 15.08L56.55 13.665L57.965 12.251ZM33.793 10.021V7H30.293C30.018 7 29.793 6.775 29.793 6.5C29.793 6.225 30.018 6 30.293 6H39.293C39.568 6 39.793 6.225 39.793 6.5C39.793 6.775 39.568 7 39.293 7H35.793V10.021C35.445 10.007 35.113 10 34.793 10C34.765 10 34.733 10.002 34.705 10.002C34.68 10.002 34.655 10 34.63 10C34.466 10 34.302 10.011 34.138 10.014C34.022 10.017 33.913 10.016 33.793 10.021Z"/>
        <path d="M25.793 18H20.793C20.24 18 19.793 18.447 19.793 19C19.793 19.553 20.24 20 20.793 20H25.793C26.346 20 26.793 19.553 26.793 19C26.793 18.447 26.346 18 25.793 18Z" />
        <path d="M25.793 25H15.793C15.24 25 14.793 25.447 14.793 26C14.793 26.553 15.24 27 15.793 27H25.793C26.346 27 26.793 26.553 26.793 26C26.793 25.447 26.346 25 25.793 25Z" />
        <path d="M25.793 32H10.793C10.24 32 9.793 32.447 9.793 33C9.793 33.553 10.24 34 10.793 34H25.793C26.346 34 26.793 33.553 26.793 33C26.793 32.447 26.346 32 25.793 32Z" />
        <path d="M25.793 39H6.793C6.24 39 5.793 39.447 5.793 40C5.793 40.553 6.24 41 6.793 41H25.793C26.346 41 26.793 40.553 26.793 40C26.793 39.447 26.346 39 25.793 39Z" />
        <path d="M25.793 46H12.793C12.24 46 11.793 46.447 11.793 47C11.793 47.553 12.24 48 12.793 48H25.793C26.346 48 26.793 47.553 26.793 47C26.793 46.447 26.346 46 25.793 46Z" />
        <path d="M25.793 53H18.793C18.24 53 17.793 53.447 17.793 54C17.793 54.553 18.24 55 18.793 55H25.793C26.346 55 26.793 54.553 26.793 54C26.793 53.447 26.346 53 25.793 53Z" />
    </symbol>

</svg>